Coordinates
version=1
nRows=26
nColumns=24
inDegrees=yes

Units are S.I. units (second, meters, Newtons, ...)
Angles are in degrees.

endheader
time	pelvis_tilt	pelvis_list	pelvis_rotation	pelvis_tx	pelvis_ty	pelvis_tz	hip_flexion_r	hip_adduction_r	hip_rotation_r	knee_angle_r	ankle_angle_r	subtalar_angle_r	mtp_angle_r	hip_flexion_l	hip_adduction_l	hip_rotation_l	knee_angle_l	ankle_angle_l	subtalar_angle_l	mtp_angle_l	lumbar_extension	lumbar_bending	lumbar_rotation
      1.18683333	     -3.20377067	     -2.76331195	    -14.55495636	     -0.00698065	      0.87512532	      0.32458446	    -17.64888541	      4.28442985	      7.50191022	    -12.36204330	     14.04234438	     11.20835347	     19.00264934	     32.22224808	     -9.34058644	    -18.32343954	     -5.46097141	      5.24092845	     -3.04698977	      0.12700270	     -2.95135673	      4.41469360	     14.90037234
      1.19100000	     -3.25682179	     -2.65892904	    -14.57090141	     -0.00082145	      0.87440340	      0.32440340	    -17.74108886	      4.07376006	      7.41338244	    -12.77243142	     13.62762920	     11.22151463	     21.87761973	     32.25506928	     -9.21326093	    -18.19960418	     -5.93068149	      5.15713073	     -3.15559230	      0.91535030	     -2.82611613	      4.20251305	     14.86552149
      1.19516667	     -3.31553811	     -2.56832009	    -14.58055849	      0.00536158	      0.87370327	      0.32421282	    -17.82115728	      3.88535109	      7.35792717	    -13.20618894	     13.22032553	     11.20489468	     21.89619525	     32.29968246	     -9.09936599	    -18.07747173	     -6.44832423	      5.08511612	     -3.22521292	      0.92628491	     -2.69426589	      4.01639964	     14.86758573
      1.19933333	     -3.43236720	     -2.47846598	    -14.58137447	      0.01154057	      0.87293217	      0.32398797	    -17.80073201	      3.71847156	      7.29739539	    -13.71698735	     12.83015508	     11.22034019	     22.08386370	     32.40270936	     -8.98334087	    -17.85979058	     -6.96838787	      4.92252457	     -3.41246968	      0.99232733	     -2.50388059	      3.84494756	     14.81954706
      1.20350000	     -3.48337130	     -2.34646129	    -14.56935696	      0.01782901	      0.87228782	      0.32371427	    -17.82952927	      3.48555540	      7.16529327	    -14.24547773	     12.38345199	     11.26601780	     23.01293487	     32.38266267	     -8.77618499	    -17.57125760	     -7.38904701	      4.71502662	     -3.78490481	      1.29405443	     -2.36950292	      3.59592304	     14.74163582
      1.20766667	     -3.53420302	     -2.23631134	    -14.54028018	      0.02415554	      0.87167326	      0.32345464	    -17.86910048	      3.28614260	      7.06131433	    -14.75934536	     11.87014297	     11.23811489	     23.07468542	     32.40975429	     -8.61445827	    -17.45909706	     -7.93779341	      4.47751830	     -3.80741466	      1.31418431	     -2.23198400	      3.38757433	     14.73524391
      1.21183333	     -3.65276162	     -2.10220690	    -14.51017432	      0.03050827	      0.87099408	      0.32317237	    -17.79802596	      3.08273244	      6.97326419	    -15.33579489	     11.33768327	     11.26036448	     23.28851691	     32.48049702	     -8.41858424	    -17.20627550	     -8.42258644	      4.16281871	     -4.02448983	      1.37895790	     -1.99992873	      3.12933052	     14.66569444
      1.21600000	     -3.73275569	     -1.96548550	    -14.46380589	      0.03684488	      0.87037657	      0.32278570	    -17.70985580	      2.86228020	      6.78305431	    -16.02309178	     10.86953580	     11.31451519	     23.93536473	     32.49731309	     -8.17582167	    -16.84538027	     -8.86652622	      3.71676654	     -4.61879963	      1.56711547	     -1.84551665	      2.92152714	     14.53320617
      1.22016667	     -3.73995971	     -1.78176692	    -14.42197244	      0.04333335	      0.86992889	      0.32244968	    -17.71274821	      2.56922527	      6.60190141	    -16.63911001	     10.16908290	     11.29141241	     28.50637521	     32.41900497	     -7.88803575	    -16.68106105	     -9.29866946	      3.28573564	     -4.91718439	      2.92736692	     -1.73838775	      2.57623767	     14.49129809
      1.22433333	     -3.85357617	     -1.64677754	    -14.33497350	      0.04977602	      0.86932556	      0.32206233	    -17.58776585	      2.37944128	      6.43709766	    -17.31468897	      9.50996941	     11.29612530	     28.55818257	     32.51430968	     -7.66019087	    -16.42555490	     -9.85476675	      2.90892251	     -5.11768299	      2.95048263	     -1.51521755	      2.33074140	     14.41570782
      1.22850000	     -3.94156690	     -1.47951989	    -14.25224145	      0.05621059	      0.86878202	      0.32160973	    -17.42334725	      2.14029993	      6.21383708	    -18.10548980	      8.93221225	     11.34360625	     28.79865683	     32.54905433	     -7.36286985	    -16.06076468	    -10.31782748	      2.36069170	     -5.76105978	      3.02407204	     -1.33306392	      2.06988776	     14.25489249
      1.23266667	     -4.02155024	     -1.29652118	    -14.15525116	      0.06270274	      0.86828947	      0.32115272	    -17.25648199	      1.88585964	      5.97712656	    -18.89926237	      8.26626425	     11.39385675	     29.14240028	     32.58603100	     -7.05026493	    -15.76448421	    -10.80631727	      1.81252269	     -6.27704572	      3.11861364	     -1.14396555	      1.76617262	     14.12980474
      1.23683333	     -4.06989888	     -1.09712198	    -14.03813611	      0.06925207	      0.86786494	      0.32067385	    -17.10942732	      1.60601380	      5.69250373	    -19.69607488	      7.47535976	     11.40877969	     32.84812243	     32.60137232	     -6.71129780	    -15.50711636	    -11.32155495	      1.29838774	     -6.72959389	      4.11855314	     -0.98649000	      1.41631064	     14.04584572
      1.24100000	     -4.16972420	     -0.91961098	    -13.91577683	      0.07575113	      0.86739962	      0.32018782	    -16.87755465	      1.37202548	      5.45276781	    -20.56027746	      6.72812166	     11.43132205	     32.92646674	     32.70047128	     -6.40962458	    -15.23793147	    -11.90030244	      0.76134294	     -7.19924218	      4.13962007	     -0.78173810	      1.12639673	     13.87417064
      1.24516667	     -4.25107405	     -0.71995413	    -13.77363197	      0.08228189	      0.86698573	      0.31965770	    -16.63633685	      1.10877089	      5.15892545	    -21.46175126	      5.95190302	     11.49026808	     33.09683111	     32.78280326	     -6.06679586	    -14.94389965	    -12.47834036	      0.23096310	     -7.73170955	      4.17325373	     -0.59488466	      0.79392808	     13.71691149
      1.24933333	     -4.33207916	     -0.51465468	    -13.61604639	      0.08881648	      0.86659668	      0.31910044	    -16.37092639	      0.84001216	      4.84359291	    -22.39924544	      5.14076082	     11.55360210	     33.35597815	     32.88380580	     -5.71531425	    -14.65518096	    -13.09726394	     -0.26897386	     -8.25591672	      4.21611418	     -0.41026399	      0.45239236	     13.55020509
      1.25350000	     -4.40884711	     -0.30302002	    -13.44462953	      0.09535550	      0.86623932	      0.31851855	    -16.08280867	      0.56254220	      4.50059953	    -23.37488431	      4.29833705	     11.62408103	     33.71253044	     32.99669237	     -5.35464346	    -14.37250087	    -13.75471135	     -0.73149213	     -8.77589573	      4.26695566	     -0.23247631	      0.10380455	     13.37339425
      1.25766667	     -4.49022453	     -0.09329749	    -13.25787862	      0.10189024	      0.86590442	      0.31791239	    -15.76884624	      0.28848423	      4.14645063	    -24.37960239	      3.41415914	     11.68677519	     34.12181135	     33.13712862	     -4.99760896	    -14.10053971	    -14.46622826	     -1.14137615	     -9.23849541	      4.31651725	     -0.05232572	     -0.24823884	     13.19499257
      1.26183333	     -4.56464474	      0.12432164	    -13.05913033	      0.10842258	      0.86560521	      0.31728170	    -15.43590024	      0.00138348	      3.77159052	    -25.41988850	      2.50238921	     11.77053966	     34.65339372	     33.28224901	     -4.62709243	    -13.81932400	    -15.21025339	     -1.50104705	     -9.71563466	      4.36893728	      0.11671789	     -0.61309953	     12.99921525
      1.26600000	     -4.56043909	      0.37273828	    -12.87393157	      0.11500627	      0.86548236	      0.31666159	    -15.16848871	     -0.35403783	      3.37332148	    -26.45149190	      1.42961132	     11.79864109	     38.54161285	     33.32928142	     -4.22564844	    -13.64415842	    -15.94025685	     -1.82063203	    -10.11061738	      4.66194710	      0.19428257	     -1.04721133	     12.86523292
      1.27016667	     -4.65905533	      0.55066104	    -12.62028250	      0.12150058	      0.86517516	      0.31596458	    -14.78055471	     -0.58728053	      2.95842626	    -27.54125882	      0.46090449	     11.85103684	     38.59841115	     33.56800592	     -3.89769724	    -13.35652524	    -16.85562331	     -1.93554897	    -10.34224756	      4.66209384	      0.37450059	     -1.35654340	     12.69812327
      1.27433333	     -4.71792026	      0.76795148	    -12.38552671	      0.12800617	      0.86497669	      0.31525952	    -14.39540541	     -0.89000655	      2.53261224	    -28.67321525	     -0.55418703	     11.91953352	     38.69105046	     33.73867240	     -3.52415751	    -13.09728417	    -17.71833257	     -2.08620097	    -10.65336340	      4.65050461	      0.51245036	     -1.72523171	     12.50195199
      1.27850000	     -4.75990205	      0.99049616	    -12.14028223	      0.13450501	      0.86483073	      0.31452247	    -14.00664778	     -1.21067143	      2.08454205	    -29.82972677	     -1.60467342	     11.99501343	     38.80714306	     33.89453495	     -3.13676520	    -12.83561667	    -18.59556935	     -2.17112020	    -10.94747995	      4.62744825	      0.62644246	     -2.10120762	     12.31390793
      1.28266667	     -4.78108638	      1.22039268	    -11.89151701	      0.14099324	      0.86473821	      0.31375746	    -13.61674526	     -1.55433864	      1.62403481	    -31.01137294	     -2.67781527	     12.08164677	     39.03927971	     34.02523748	     -2.73132812	    -12.56215160	    -19.47635677	     -2.17622865	    -11.28784917	      4.56292117	      0.71091917	     -2.49578683	     12.10259575
      1.28683333	     -4.75341181	      1.43328290	    -11.62872306	      0.14749198	      0.86475009	      0.31298955	    -13.27553433	     -1.89525019	      1.13618385	    -32.18905675	     -3.82307701	     12.09458470	     39.06550944	     34.11178500	     -2.34857197	    -12.37874155	    -20.39880852	     -2.07878565	    -11.36650295	      4.55258682	      0.73246794	     -2.85910425	     12.03781722
      1.29100000	     -4.80151193	      1.67173876	    -11.37240733	      0.15392605	      0.86468573	      0.31220048	    -12.80528200	     -2.25462321	      0.68524258	    -33.42690378	     -4.99095161	     12.17215977	     39.11604005	     34.26055664	     -1.93823813	    -12.10485582	    -21.26910803	     -1.98707993	    -11.51943548	      4.52344127	      0.84197376	     -3.28653239	     11.86842508
